<?xml version="1.0" ?><svg id="Layer_1" style="enable-background:new 0 0 256 304;" version="1.1" viewBox="0 0 256 304" xml:space="preserve" xmlns="http://www.w3.org/2000/svg" xmlns:xlink="http://www.w3.org/1999/xlink"><style type="text/css">
	.st0{fill:#EE4323;}
</style><g><path class="st0" d="M85.2,303.1c-18-7.8-34.8-27.5-34.8-47.7c0-22,13.9-40.7,31.3-53c-2.1,7.9-3.2,15.1,1.9,22.2   c4.8,6.6,13.2,9.8,21.2,8c18.6-4.1,19.4-24.5,8.4-36.4C102.3,184.3,91.8,171,96,153.9c2.1-8.6,7.3-16.6,14-22.3   c-5.1,13.5,9.4,26.7,19,33.4c16.6,11.5,34.9,20.1,50.2,33.6c16.1,14.1,28,33.3,25.6,55.4c-2.6,24-21.7,40.7-43.1,49.2   c45.3-10,92-45.1,93-95.3c0.8-41.3-27.5-73.1-62.6-91.3l-1.8-1c1,2.3,1.3,4.3,1.2,6.1c0.3-1.3,0.5-2.7,0.6-4.1   c0,1.7-0.2,3.4-0.6,4.9l0.1-0.8c-0.5,2.2-1.4,4.3-2.6,6.2l0.5-0.6c-7,11.6-26,14.1-35.3,2.1c-15.1-19.3,0.3-40.2,2.5-60.7   c2.7-25.7-13.4-50.6-33.4-65.5c11,17.8-3.5,41.3-15.1,54.5c-11.2,12.8-24.9,23.4-37.3,35c-13.3,12.4-26.1,25.5-37.1,40.1   c-21.9,29.2-35.3,66-25.5,102.4C18,271.7,49.6,294.9,85.2,303.1L85.2,303.1z"/></g></svg>