<svg xmlns="http://www.w3.org/2000/svg" viewBox="0 0 607.4 128"><path d="M168,48.62v4a18,18,0,0,1,3.47-3.31,8.53,8.53,0,0,1,5.21-1.5,11.9,11.9,0,0,1,6,1.53,10.3,10.3,0,0,1,4.19,4.59,19.18,19.18,0,0,1,4.38-4.34A9.71,9.71,0,0,1,197,47.81a11.7,11.7,0,0,1,5.81,1.47,10.83,10.83,0,0,1,4.22,4.34,14.71,14.71,0,0,1,1.59,7.19V80.18h-7.93l-.07-18.31A6.26,6.26,0,0,0,199,57.12a6.09,6.09,0,0,0-4.35-1.56,5.33,5.33,0,0,0-3.56,1.28,18.24,18.24,0,0,0-2.81,3V80.18h-7.94l-.06-18.31a6.22,6.22,0,0,0-1.66-4.75,6,6,0,0,0-4.28-1.56,5.59,5.59,0,0,0-3.56,1.22A15.75,15.75,0,0,0,168,59.62V80.18H160V48.62Z" style="fill:#fff"/><path d="M245.58,48.62V67.43a13.45,13.45,0,0,1-1.87,7.22,12.54,12.54,0,0,1-5.1,4.66,17.3,17.3,0,0,1-14.62,0,12.31,12.31,0,0,1-5.06-4.66,13.63,13.63,0,0,1-1.85-7.22V48.62h8L225.15,66c0,2.45.56,4.29,1.68,5.5a6.46,6.46,0,0,0,9,0c1.15-1.21,1.72-3,1.72-5.5V48.62Z" style="fill:#fff"/><path d="M264.83,47.81a16.46,16.46,0,0,1,5.44.87,13,13,0,0,1,3.88,2v7a23.66,23.66,0,0,0-3.66-1.93,11,11,0,0,0-4.47-.94,5.7,5.7,0,0,0-3.56,1,2.9,2.9,0,0,0-1.31,2.37A2.74,2.74,0,0,0,261.9,60a6.28,6.28,0,0,0,2.87,1.47l3.56,1.18q7.19,2.13,7.19,8.32a8.61,8.61,0,0,1-1.66,5.21,11.29,11.29,0,0,1-4.43,3.6,14.35,14.35,0,0,1-6.16,1.31,19.38,19.38,0,0,1-6.19-1,16.15,16.15,0,0,1-4.56-2.19V71a18.11,18.11,0,0,0,2.88,1.56,23,23,0,0,0,3.5,1.22,13.38,13.38,0,0,0,3.31.47,6.63,6.63,0,0,0,3.65-.85,2.7,2.7,0,0,0,1.29-2.4,2.13,2.13,0,0,0-1.07-1.88A13.91,13.91,0,0,0,263,67.75l-3.88-1.38a8.94,8.94,0,0,1-5-3.37,9.61,9.61,0,0,1-1.37-5.19,9,9,0,0,1,1.53-5.22,10.36,10.36,0,0,1,4.28-3.5A14.85,14.85,0,0,1,264.83,47.81Z" style="fill:#fff"/><path d="M293.52,48.62V80.18h-7.94V55.37h-5.06V48.62ZM288.9,32.18a5.3,5.3,0,0,1,3.87,1.6,5.13,5.13,0,0,1,1.63,3.78,5.19,5.19,0,0,1-1.63,3.75,5.28,5.28,0,0,1-3.87,1.62,5.38,5.38,0,1,1,0-10.75Z" style="fill:#fff"/><path d="M317.9,47.81a12.86,12.86,0,0,1,5.75,1.12,19.89,19.89,0,0,1,3.56,2.19v7.31a16.68,16.68,0,0,0-3.66-2,13.43,13.43,0,0,0-5-.81,8.57,8.57,0,0,0-4.4,1.19,8.75,8.75,0,0,0-4.41,7.75,8.55,8.55,0,0,0,8.81,8.87,13.9,13.9,0,0,0,5-.78,15.81,15.81,0,0,0,3.66-2v7.25a15.44,15.44,0,0,1-3.56,2.16,13.83,13.83,0,0,1-5.75,1,16,16,0,0,1-8.54-2.28,16.72,16.72,0,0,1-5.87-6.06,16.29,16.29,0,0,1-2.16-8.22A16.76,16.76,0,0,1,306,52.9a17.06,17.06,0,0,1,5.28-3.72A15.88,15.88,0,0,1,317.9,47.81Z" style="fill:#fff"/><path d="M378.15,48.62,367.21,80.18h-5.75l-7.38-20.43-7.37,20.43H340.9L330,48.62h8.63l5.81,18.69,6.81-18.69H357l6.75,18.69,5.81-18.69Z" style="fill:#fff"/><path d="M403.52,57.5a8.42,8.42,0,0,0-4.19-1.13,6.23,6.23,0,0,0-4.56,1.78,17.61,17.61,0,0,0-3.19,4.41V80.18h-7.93V48.62h7.93v5.94a17.62,17.62,0,0,1,3.85-4.69,7.57,7.57,0,0,1,5-1.87,7.94,7.94,0,0,1,3.06.56Z" style="fill:#fff"/><path d="M422.15,47.81A12.38,12.38,0,0,1,427.33,49a12.7,12.7,0,0,1,4.38,3.18V48.62h7.94V80.18h-7.94V74.87a12.77,12.77,0,0,1-4,4.41,10.38,10.38,0,0,1-6.13,1.84,13.41,13.41,0,0,1-7-1.94,13.92,13.92,0,0,1-5.15-5.62,18.92,18.92,0,0,1-1.94-8.94,19,19,0,0,1,2-9,14.37,14.37,0,0,1,5.31-5.78A14,14,0,0,1,422.15,47.81Zm1.62,7.75a7.16,7.16,0,0,0-4.28,1.28,8.64,8.64,0,0,0-2.78,3.34,10,10,0,0,0-1,4.44,9,9,0,0,0,2.15,6.06,7.18,7.18,0,0,0,5.72,2.5,7.48,7.48,0,0,0,4-1.12,8.54,8.54,0,0,0,3-3.16,9.76,9.76,0,0,0,1.16-4.9V59.5a14.42,14.42,0,0,0-3.66-2.88A8.84,8.84,0,0,0,423.77,55.56Z" style="fill:#fff"/><path d="M467.46,47.81a13.45,13.45,0,0,1,7,1.9,14,14,0,0,1,5.18,5.57,18.44,18.44,0,0,1,2,8.9,19.48,19.48,0,0,1-2,9.07,14.29,14.29,0,0,1-5.31,5.84,14,14,0,0,1-7.4,2,11.75,11.75,0,0,1-5.22-1.28,14.33,14.33,0,0,1-4.35-3.22V95.18H449.4V48.62h7.93v5.31a12.24,12.24,0,0,1,4-4.34A10.63,10.63,0,0,1,467.46,47.81Zm-2,7.94a7.79,7.79,0,0,0-4,1.09,8.33,8.33,0,0,0-3,3.09,9.1,9.1,0,0,0-1.1,4.82v4.56a17.48,17.48,0,0,0,3.66,2.9,8.21,8.21,0,0,0,4.28,1.16,7.08,7.08,0,0,0,4.25-1.31,8.76,8.76,0,0,0,2.81-3.41,10.16,10.16,0,0,0,1-4.47,8.78,8.78,0,0,0-2.15-6A7.28,7.28,0,0,0,465.46,55.75Z" style="fill:#fff"/><path d="M492.9,71.31a5,5,0,1,1-3.54,1.47A4.82,4.82,0,0,1,492.9,71.31Z" style="fill:#fff;opacity:0.75"/><path d="M537.33,48.62,525,64.06l12.81,16.12h-9.94l-7.87-11-7.88,11h-9.93L515,64.06,502.58,48.62H512l8,10.13,8-10.13Z" style="fill:#fff;opacity:0.75"/><path d="M548.27,48.62l9,20.13L566,48.62h9.06L552.15,95.18h-9l9.5-17.31L539,48.62Z" style="fill:#fff;opacity:0.75"/><path d="M606.77,48.62v1.94L590.46,73.37H607.4v6.81H579v-2l15.63-22.81H580V48.62Z" style="fill:#fff;opacity:0.75"/><path d="M78.8,72.27C71.11,74.83,68.55,62,68.55,62s3.5-3.51.85-6.63c4.13-4.12,1.72-6.19,1.72-6.19a18.12,18.12,0,0,0-25.63,0,14.83,14.83,0,0,0-2,2.46c-.22.31-.42.63-.61,1l-.06.1a18,18,0,0,0-2.19,5.47A13.92,13.92,0,0,1,37.8,62c-5.13,5.12-17.94-2.56-28.2,7.69a3.41,3.41,0,0,0-.25.37c-.34.31-.7.58-1,.91-12,12-10.88,32.69,2.57,46.14,12.77,12.78,32,14.42,44.26,4.24a2.12,2.12,0,0,0,.59-.4c.26-.26.46-.5.7-.76s.4-.33.59-.52c6.13-6.14,8.49-13.52,7.56-21.06C64.34,95,64,92.23,66,90.22c2.57-2.57,10.25,0,15.38-5.13C89.05,77.4,83.67,70.65,78.8,72.27Z" style="fill:#bb1a34"/><path d="M54,66.29l55.61-55.6,7.68,7.7L61.69,74Z" style="fill:#292f33"/><path d="M35.93,103.35c6.46,4.63,7.1,12.59,6.74,17.23a2.39,2.39,0,0,0,3.55,2.3c9.29-5.27,16.68-13.73,14.64-28.46-.41-2.67.4-7.68,8.23-8.72s10.66-4,11.63-5.39c.55-.8,1-3-1.13-3.09S72,78.83,67.15,73.1s-5.65-8.08-5.81-9-5.11-13.39-9.16-6.76C48.82,62.89,45.09,73.72,33,76.54c-4.91,1.15-11.12,3.65-12.92,7.11-3,5.81,1.67,9.88,5.71,12.62S35.93,103.35,35.93,103.35Z" style="fill:#f5f8fa"/><path d="M47.06,68.11,52.19,63,65,75.8l-5.13,5.12ZM30.84,84.33,36,79.2,48.78,92l-5.12,5.12Z" style="fill:#292f33"/><path d="M26.49,96.3l79-78.88,1.92,1.92-79,78.89Zm3.15,3.15,79-78.88,1.92,1.92-79,78.89Z" style="fill:#ccd6dd"/><path d="M35.26,100.42a3.63,3.63,0,1,1-5.13,5.13l-7.69-7.69a3.64,3.64,0,0,1,0-5.13h0a3.64,3.64,0,0,1,5.13,0Z" style="fill:#292f33"/><circle cx="46.9" cy="104.88" r="3.62" style="fill:#292f33"/><path d="M52,113.31a2.49,2.49,0,1,1-2.49-2.49A2.49,2.49,0,0,1,52,113.31Z" style="fill:#292f33"/><path d="M126.87,14.2a3.89,3.89,0,0,1,0,5.48L111.05,30.62a3.87,3.87,0,0,1-5.47,0l-8.21-8.21a3.87,3.87,0,0,1,0-5.47L108.32,1.13a3.87,3.87,0,0,1,5.47,0Z" style="fill:#bb1a34"/><circle cx="116.12" cy="31.83" r="2.27" style="fill:#66757f"/><circle cx="120.68" cy="28.76" r="2.27" style="fill:#66757f"/><circle cx="125.24" cy="25.7" r="2.27" style="fill:#66757f"/><circle cx="96.51" cy="11.56" r="2.27" style="fill:#66757f"/><circle cx="99.56" cy="7.07" r="2.27" style="fill:#66757f"/><circle cx="102.62" cy="2.57" r="2.27" style="fill:#66757f"/></svg>