<svg xmlns="http://www.w3.org/2000/svg" viewBox="0 0 490.6 436.9"><path d="M490.6,218.5c0-32.5-40.7-63.3-103.1-82.4,14.4-63.6,8-114.2-20.2-130.4A43.9,43.9,0,0,0,345,.1V0c-27.5,0-63.5,19.6-99.9,53.6C208.7,19.8,172.7.4,145.2.4V.5a44.59,44.59,0,0,0-22.6,5.6C94.5,22.3,88.2,72.8,102.7,136.2,40.5,155.4,0,186.1,0,218.5s40.7,63.3,103.1,82.4c-14.4,63.6-8,114.2,20.2,130.4,6.5,3.8,14.1,5.6,22.5,5.6,27.5,0,63.5-19.6,99.9-53.6,36.4,33.8,72.4,53.2,99.9,53.2a44.59,44.59,0,0,0,22.6-5.6c28.1-16.2,34.4-66.7,19.9-130.1C450.1,281.7,490.6,250.9,490.6,218.5ZM344.9,22.3v.1A23.16,23.16,0,0,1,356.3,25c13.6,7.8,19.5,37.5,14.9,75.7-1.1,9.4-2.9,19.3-5.1,29.4a484.62,484.62,0,0,0-63.5-10.9,487.8,487.8,0,0,0-41.6-50C293.55,39,324.1,22.35,344.9,22.3ZM156.7,269.7q7.05,12,14.4,23.4c-14.2-2.1-27.9-4.7-41-7.9,3.7-12.9,8.3-26.2,13.5-39.5C147.7,253.7,152,261.7,156.7,269.7ZM129.8,151.8c13.1-3.1,26.9-5.8,41.2-7.9-4.9,7.7-9.8,15.6-14.4,23.7s-8.9,16-13,24C138.2,178.2,133.6,164.8,129.8,151.8Zm25.5,67c6.2-13.4,13.2-26.8,20.7-39.9,7.8-13.5,15.8-26.3,24.1-38.2,14.9-1.3,30-2,45.2-2s30.2.7,45,1.9q12.45,17.85,24.2,38,11.4,19.65,20.8,39.8c-6.3,13.4-13.2,26.8-20.7,39.9-7.8,13.5-15.8,26.3-24.1,38.2-14.9,1.3-30,2-45.2,2s-30.2-.7-45-1.9q-12.45-17.85-24.2-38Q164.7,239,155.3,218.8Zm178.6,50.6c4.6-8,8.9-16.1,13-24.1,5.4,13.4,10,26.8,13.8,39.8-13.1,3.2-26.9,5.9-41.2,8C324.4,285.4,329.3,277.5,333.9,269.4Zm-.1-102.1c-4.6-8-9.5-15.8-14.4-23.4,14.2,2.1,27.9,4.7,41,7.9-3.7,12.9-8.3,26.2-13.5,39.5C342.8,183.3,338.5,175.3,333.8,167.3Zm-61-50.3c-9-.4-18.2-.7-27.5-.7s-18.7.2-27.8.7A390.33,390.33,0,0,1,245,85,412.27,412.27,0,0,1,272.8,117ZM133.7,25.4c3-1.8,6.9-2.6,11.5-2.6v-.1c20.7,0,51.4,16.5,84,46.6a472.31,472.31,0,0,0-41.3,49.9,467,467,0,0,0-63.6,11c-2.3-10-4-19.7-5.2-29C114.4,63,120.2,33.3,133.7,25.4ZM108.5,279.3c-9.9-3.1-19.3-6.5-28-10.2C45.1,254,22.2,234.2,22.2,218.5s22.9-35.6,58.3-50.6c8.6-3.7,18-7,27.7-10.1a480.28,480.28,0,0,0,22.5,60.9A473.51,473.51,0,0,0,108.5,279.3Zm37.1,135.4a23.87,23.87,0,0,1-11.3-2.7c-13.6-7.8-19.5-37.5-14.9-75.7,1.1-9.4,2.9-19.3,5.1-29.4A484.62,484.62,0,0,0,188,317.8a487.8,487.8,0,0,0,41.6,50C197,398.1,166.4,414.7,145.6,414.7ZM245.5,352a412.27,412.27,0,0,1-27.8-32c9,.4,18.2.7,27.5.7s18.7-.2,27.8-.7A390.33,390.33,0,0,1,245.5,352Zm111.4,59.6c-3,1.8-6.9,2.6-11.5,2.6-20.7,0-51.4-16.5-84-46.6a472.31,472.31,0,0,0,41.3-49.9,467,467,0,0,0,63.6-11,279.94,279.94,0,0,1,5.2,29.1C376.2,374,370.4,403.7,356.9,411.6ZM410,269.1c-8.6,3.7-18,7-27.7,10.1a480.28,480.28,0,0,0-22.5-60.9A473.51,473.51,0,0,0,382,157.7c9.9,3.1,19.3,6.5,28.1,10.2,35.4,15.1,58.3,34.9,58.3,50.6S445.4,254.1,410,269.1Z" style="fill:#61dafb"/><circle cx="245.2" cy="218.5" r="45.7" style="fill:#61dafb"/></svg>