<svg xmlns="http://www.w3.org/2000/svg" viewBox="0 0 17 17">
  <g>
    <rect width="17" height="17" rx="0.797" style="fill: #3178c6"/>
    <path d="M10.863,14.211v1.862a3.916,3.916,0,0,0,1.071.35,7.081,7.081,0,0,0,1.3.116,6.1,6.1,0,0,0,1.268-.128,3.1,3.1,0,0,0,1.053-.422,2.142,2.142,0,0,0,.717-.769,2.713,2.713,0,0,0,.113-2.06,2.077,2.077,0,0,0-.435-.678,3.194,3.194,0,0,0-.682-.533,7.209,7.209,0,0,0-.9-.445c-.244-.1-.462-.2-.656-.294a3.363,3.363,0,0,1-.493-.291,1.259,1.259,0,0,1-.313-.315.656.656,0,0,1-.111-.375.625.625,0,0,1,.1-.346.847.847,0,0,1,.279-.265,1.487,1.487,0,0,1,.441-.172,2.531,2.531,0,0,1,.58-.061,3.566,3.566,0,0,1,.491.035,3.891,3.891,0,0,1,.519.107,3.667,3.667,0,0,1,.508.184,2.818,2.818,0,0,1,.455.256V8.226a4.534,4.534,0,0,0-.925-.241A7.443,7.443,0,0,0,14.1,7.906a5.348,5.348,0,0,0-1.254.143,3.176,3.176,0,0,0-1.042.445,2.224,2.224,0,0,0-.711.771,2.271,2.271,0,0,0-.261,1.121,2.178,2.178,0,0,0,.479,1.42,3.646,3.646,0,0,0,1.454,1c.255.105.493.207.714.308a3.934,3.934,0,0,1,.571.315,1.468,1.468,0,0,1,.38.355.723.723,0,0,1,.14.436.67.67,0,0,1-.087.335.775.775,0,0,1-.264.268,1.42,1.42,0,0,1-.441.177,2.635,2.635,0,0,1-.619.064,3.507,3.507,0,0,1-1.195-.212A3.579,3.579,0,0,1,10.863,14.211ZM7.734,9.574h2.43V8.039H3.391V9.574H5.809v6.832H7.734Z" transform="translate(-1 -1)" style="fill: #fff;fill-rule: evenodd"/>
  </g>
</svg>
