<?xml version="1.0" encoding="utf-8"?>
<!-- Generator: Adobe Illustrator 25.2.1, SVG Export Plug-In . SVG Version: 6.00 Build 0)  -->
<svg version="1.1" id="Layer_1" xmlns="http://www.w3.org/2000/svg" xmlns:xlink="http://www.w3.org/1999/xlink" x="0px" y="0px"
	 viewBox="0 0 500 500" style="enable-background:new 0 0 500 500;" xml:space="preserve">
<style type="text/css">
	.st0{fill:#CCCCCC;}
	.st1{fill:#FFFFFF;}
	.st2{fill:#A6A6A6;}
</style>
<path class="st0" d="M472.3,349.8V116.6L270.4,0v89.5l79.1,45.7c2.1,1.3,2.8,4,1.5,6.1c-0.4,0.6-0.9,1.2-1.5,1.5l-94.1,54.3
	c-2.7,1.6-6.1,1.6-8.9,0l-94.1-54.3c-2.1-1.2-2.8-4-1.6-6.1c0.4-0.6,0.9-1.2,1.6-1.6l79.1-45.7V0l-202,116.6v233.2l77.5-44.7v-91.4
	c0-2.5,2.1-4.4,4.5-4.4c0.7,0,1.5,0.2,2.1,0.6l94.1,54.3c2.7,1.6,4.4,4.5,4.4,7.7v108.6c0,2.5-2,4.4-4.5,4.4c-0.7,0-1.5-0.2-2.1-0.6
	l-79.2-45.8L49,383.3L251,500l202-116.6l-77.5-44.8l-79.1,45.7c-2.2,1.2-4.9,0.4-6.1-1.7c-0.4-0.7-0.6-1.4-0.6-2.1V271.9
	c0-3.2,1.7-6.1,4.4-7.7l94.1-54.3c2.1-1.2,4.9-0.5,6.1,1.7c0.4,0.7,0.6,1.4,0.6,2.2v91.4L472.3,349.8z"/>
<path class="st1" d="M270.4,0v89.5l79.1,45.7c2.1,1.3,2.8,4,1.5,6.1c-0.4,0.6-0.9,1.2-1.5,1.5l-94.1,54.3c-2.7,1.6-6.1,1.6-8.9,0
	l-94.1-54.3c-2.1-1.2-2.8-4-1.6-6.1c0.4-0.6,0.9-1.2,1.6-1.6l79.1-45.7V0l-202,116.6L251,244.4l221.3-127.8L270.4,0z"/>
<path class="st0" d="M205.7,384.4l-79.2-45.8L49,383.3L251,500V244.4L29.6,116.6v233.2l77.5-44.7v-91.4c0-2.5,2.1-4.4,4.5-4.4
	c0.7,0,1.5,0.2,2.1,0.6l94.1,54.3c2.7,1.6,4.4,4.5,4.4,7.7v108.6c0,2.5-2,4.4-4.5,4.4C207,384.9,206.3,384.7,205.7,384.4z"/>
<path class="st2" d="M251,500l202-116.6l-77.5-44.8l-79.1,45.7c-2.2,1.2-4.9,0.4-6.1-1.7c-0.4-0.7-0.6-1.4-0.6-2.1V271.9
	c0-3.2,1.7-6.1,4.4-7.7l94.1-54.3c2.1-1.2,4.9-0.5,6.1,1.7c0.4,0.7,0.6,1.4,0.6,2.2v91.4l77.5,44.7V116.6L251,244.4V500z"/>
</svg>
