<svg xmlns="http://www.w3.org/2000/svg" viewBox="0 0 96 96"><defs><clipPath id="d"><path style="fill:none" d="M0 0h96v96H0z"/></clipPath><style>.e{fill:#ff6700}</style></defs><g id="b"><g style="clip-path:url(#d)" id="c"><path class="e" d="M48 8a40 40 0 1 0 0 80 40 40 0 0 0 0-80Zm0 73.6a33.6 33.6 0 1 1 0-67.2 33.6 33.6 0 0 1 0 67.2Z"/><path class="e" d="M48 17.6a30.4 30.4 0 1 0 0 60.8 30.4 30.4 0 0 0 0-60.8Zm0 3.2a27.2 27.2 0 0 1 26.2 34.5c-15.9-11-38.3-13.1-52.8-13A27.2 27.2 0 0 1 48 20.7Z"/></g></g></svg>
