<svg xmlns="http://www.w3.org/2000/svg" width="32" height="52" fill="none" viewBox="0 0 32 52">
  <path fill="currentColor" d="M26 24.25H6A1.75 1.75 0 0 0 4.25 26v20A1.75 1.75 0 0 0 6 47.75h20A1.75 1.75 0 0 0 27.75 46V26A1.75 1.75 0 0 0 26 24.25Zm-3.75 9.5v12.5h-5.5v-12.5h5.5Zm-7 12.5h-5.5v-12.5h5.5v12.5Zm11-.25a.25.25 0 0 1-.25.25h-2.25V33a.75.75 0 0 0-.75-.75H9a.75.75 0 0 0-.75.75v13.25H6a.25.25 0 0 1-.25-.25V26a.25.25 0 0 1 .25-.25h20a.25.25 0 0 1 .25.25v20Zm-7.5-17a.75.75 0 0 1-.75.75h-4a.75.75 0 1 1 0-1.5h4a.75.75 0 0 1 .75.75ZM22.29 9.41a.94.94 0 0 1-1.33 0L16.94 5.4v11.49a.94.94 0 0 1-1.88 0V5.39l-4.02 4.02A.94.94 0 1 1 9.7 8.1l5.63-5.63a.94.94 0 0 1 1.32 0l5.63 5.63a.94.94 0 0 1 0 1.32Z"/>
</svg>
