<svg xmlns="http://www.w3.org/2000/svg" fill="none" viewBox="0 0 400 684">
  <g clip-path="url(#a)">
    <path fill="currentColor" fill-rule="evenodd" d="M176 1.1c-48.15 5.42-90.18 29.84-95.45 55.46-.46 2.25-3.54 5.69-11.65 13C30.25 104.4 8.52 147.43 2 202.03l-2.08 17.41 2.03 17.1c5.96 50.15 30.2 101.42 59.49 125.77l4.58 3.8-.14 10.7C65.73 388 68.8 402.74 73 410.96l1.76 3.47-15.19 45.22-15.18 45.22-7.32 6.77C3.6 542.63 2.17 597.17 34 629c50.7 50.7 157.32 69.24 252.77 43.95 47.36-12.55 88.77-43.21 97.18-71.95 10.47-35.79 3.14-66.99-20.98-89.32l-7.26-6.72-15.24-45.25-15.25-45.25 1.78-3.48c4.2-8.24 7.27-22.97 7.12-34.17l-.14-10.7 4.58-3.8c29.28-24.35 53.53-75.62 59.5-125.78l2.02-17.09-2.08-17.41c-6.52-54.6-28.25-97.63-66.9-132.47-8.1-7.31-11.2-10.75-11.65-13C312.1 20.77 242.02-6.32 176 1.1Z" clip-rule="evenodd"/>
    <g>
      <mask id="c" width="684" height="684" x="-142" y="0" maskUnits="userSpaceOnUse" style="mask-type:alpha" class="animate-spin">
        <g fill="var(--primary)" fill-opacity=".4" clip-path="url(#b)">
          <path d="M200.45 345.54 217.43 684h34.36l-51.2-338.65-.09-.68L216.2.01h-34.45l18.18 345.52.51.01m-2.78-.5.14.07L-118.5 684h58.87l257.62-338.8.39.21L-9.14 683.99h44.58l163.12-338.47.18.1L75.89 684h37.51l85.54-338.25.22.12-.22-.16.04-.12.23.18L149.01 684h34.33l16.09-338.5.06.08-.06-.09v-.1l.1.16-.1-.21v-.08l.1.3-.08-.46.01-.3.12-.15h-.12l.09-.22-.06.01.03-.75-.12.76-.05.02-.03-.23.14-.56-.15.45-.02-.1.17-.36-.18.3-.03-.19.08-.05-.08.04-.03-.16.05-.07-.05.06L146.76 0h-36.2l88.42 343.51-.18.13L72.33 0H31.2l167.45 343.76-.2.14L-14.32 0h-51.45l264.05 344-.43.32L-125.95 0h-10.92c-1.73 1.71-3.43 3.45-5.13 5.18v44.4l339.63 294.84-.75-.16L-142 105.45v48.66l337.98 189.98L-142 197.5v39.94l334.35 105.88L-142 274.71v35.8l337.82 33.94.68.21-338.5.68v34.91l338.5-35.29-.44.2L-142 416.04v37.53l334.85-107.01L-142 493.42v43.69l338.2-191.62h.02L-142 585.9v56.26l339.09-296.94.57-.19Z"/>
          <path d="M201.18 345.6v.07l-.2.16.22-.12 86.3 338.3h37.6L201.38 345.58l.13-.07 164.07 338.48h44.64L201.7 345.42l.14-.08h-.36l.1-.1-.04-.07-.12.14v.04l-.11.06-.01-.06h-.2l.06.23-.2.21.22-.19Z"/>
          <path d="M542 536.05v-43.57L206.27 345.83 542 452.64v-37.48L206.68 345.3h-1.58l-.6-.25 1.9.19-2.8-.6-.34-.12.58-.33L542 308.31v-35.93l-335.24 70.87L542 235.07v-40.11L206.8 342.5l335.19-191.18v-48.9L203.74 343.84l-.8.2 339.04-298V4.99c-1.65-1.67-3.27-3.35-4.95-4.99h-14.84L202.5 344.13l-.07.02-.34-.14L462.57 0H411.6L201.9 343.92l-.36-.15L366.36 0H325.4L201.37 343.66l-.12-.09L287.32 0h-36.07l-50.2 343.43-.02.1-.08-.04.07.05-.03.21-.16-.18.16.22-.04.3-.27-.4.05.15-.08-.14.14.36h-.07l.17.4-.32.07.32-.03-.03.17.09.03v-.02h.03l-.02.06.03.13.08-.15v-.04l.03-.03.16.06-.1-.18.32-.1.06.07-.15.22.14.01.1-.12.08.12-.04.03.12.07.07-.02-.05.06.08.1.13-.13-.06-.06.12.01.34-.17.1.1-.15.1.3.03.46.05-.22-.14 1.75.55h-.5L542 536.03"/>
          <path d="m542 342.91-335.04 2.39L542 379.53V342.9ZM519.96 684l-317.5-338.66h-.3L460.8 684h59.16ZM542 584.75 203.71 345.32h-.5l338.78 295.55v-56.1"/>
          <animateTransform attributeName="transform" attributeType="XML" dur="10s" repeatCount="indefinite" type="rotate" values="0 200 342;360 200 342" calcMode="linear"></animateTransform>
        </g>
      </mask>
      <g mask="url(#c)">
        <path fill="var(--primary)" fill-opacity=".4" fill-rule="evenodd" d="M176 1.1c-48.15 5.42-90.18 29.84-95.45 55.46-.46 2.25-3.54 5.69-11.65 13C30.25 104.4 8.52 147.43 2 202.03l-2.08 17.41 2.03 17.1c5.96 50.15 30.2 101.42 59.49 125.77l4.58 3.8-.14 10.7C65.73 388 68.8 402.74 73 410.96l1.76 3.47-15.19 45.22-15.18 45.22-7.32 6.77C3.6 542.63 2.17 597.17 34 629c50.7 50.7 157.32 69.24 252.77 43.95 47.36-12.55 88.77-43.21 97.18-71.95 10.47-35.79 3.14-66.99-20.98-89.32l-7.26-6.72-15.24-45.25-15.25-45.25 1.78-3.48c4.2-8.24 7.27-22.97 7.12-34.17l-.14-10.7 4.58-3.8c29.28-24.35 53.53-75.62 59.5-125.78l2.02-17.09-2.08-17.41c-6.52-54.6-28.25-97.63-66.9-132.47-8.1-7.31-11.2-10.75-11.65-13C312.1 20.77 242.02-6.32 176 1.1Z" clip-rule="evenodd"/>
      </g>
    </g>
    <mask id="e" width="400" height="684" x="0" y="0" maskUnits="userSpaceOnUse" style="mask-type:alpha">
      <path fill="url(#d)" d="M0 0h400v684H0z"/>
    </mask>
    <g mask="url(#e)">
      <path fill="currentColor" fill-rule="evenodd" d="M176 1.1c-48.15 5.42-90.18 29.84-95.45 55.46-.46 2.25-3.54 5.69-11.65 13C30.25 104.4 8.52 147.43 2 202.03l-2.08 17.41 2.03 17.1c5.96 50.15 30.2 101.42 59.49 125.77l4.58 3.8-.14 10.7C65.73 388 68.8 402.74 73 410.96l1.76 3.47-15.19 45.22-15.18 45.22-7.32 6.77C3.6 542.63 2.17 597.17 34 629c50.7 50.7 157.32 69.24 252.77 43.95 47.36-12.55 88.77-43.21 97.18-71.95 10.47-35.79 3.14-66.99-20.98-89.32l-7.26-6.72-15.24-45.25-15.25-45.25 1.78-3.48c4.2-8.24 7.27-22.97 7.12-34.17l-.14-10.7 4.58-3.8c29.28-24.35 53.53-75.62 59.5-125.78l2.02-17.09-2.08-17.41c-6.52-54.6-28.25-97.63-66.9-132.47-8.1-7.31-11.2-10.75-11.65-13C312.1 20.77 242.02-6.32 176 1.1Z" clip-rule="evenodd"/>
    </g>
  </g>
  <defs>
    <clipPath id="a">
      <path fill="currentColor" d="M0 0h400v684H0z"/>
    </clipPath>
    <clipPath id="b">
      <path fill="currentColor" d="M-142 0h684v684h-684z"/>
    </clipPath>
    <radialGradient id="d" cx="0" cy="0" r="1" gradientTransform="matrix(0 342 -200 0 200 342)" gradientUnits="userSpaceOnUse">
      <stop stop-color="var(--background)" stop-opacity="0"/>
      <stop offset="1" stop-color="var(--background)"/>
    </radialGradient>
  </defs>
</svg>
