<svg xmlns="http://www.w3.org/2000/svg" viewBox="0 0 400 684">
  <path fill="#737373" fill-opacity=".1" fill-rule="evenodd" d="M176 1.1c-48.15 5.42-90.18 29.84-95.45 55.46-.46 2.25-3.54 5.69-11.65 13C30.25 104.4 8.52 147.43 2 202.03l-2.08 17.41 2.03 17.1c5.96 50.15 30.2 101.42 59.49 125.77l4.58 3.8-.14 10.7C65.73 388 68.8 402.74 73 410.96l1.76 3.47-15.19 45.22-15.18 45.22-7.32 6.77C3.6 542.63 2.17 597.17 34 629c50.7 50.7 157.32 69.24 252.77 43.95 47.36-12.55 88.77-43.21 97.18-71.95 10.47-35.79 3.14-66.99-20.98-89.32l-7.26-6.72-15.24-45.25-15.25-45.25 1.78-3.48c4.2-8.24 7.27-22.97 7.12-34.17l-.14-10.7 4.58-3.8c29.28-24.35 53.53-75.62 59.5-125.78l2.02-17.09-2.08-17.41c-6.52-54.6-28.25-97.63-66.9-132.47-8.1-7.31-11.2-10.75-11.65-13C312.1 20.77 242.02-6.32 176 1.1"/>
</svg>
