<svg xmlns="http://www.w3.org/2000/svg" xmlns:xlink="http://www.w3.org/1999/xlink" fill="none" viewBox="0 0 434 717">
  <path fill="currentColor" fill-opacity=".5" d="M192.19 9.28c34.28-3.85 69.6 1.23 97.5 12.01 13.96 5.4 26.33 12.33 35.84 20.54 9.3 8.02 16.26 17.66 18.7 28.62.15.22.5.7 1.21 1.5 1.55 1.72 4.07 4.17 8.1 7.8 40.17 36.2 62.75 81.06 69.49 137.46l2.08 17.41.11.95-.11.94-2.03 17.1c-6.07 51.1-30.62 104.1-61.59 130.36l-.73.62-1.65 1.36.1 6.88c.15 11.84-2.9 27.3-7.55 36.99l-.46.92-.24.48 14.17 42.06 14.6 43.32 5.76 5.34c26.7 24.71 34.4 59.22 23.22 97.43-4.9 16.77-18.93 32.93-36.9 46.23-18.17 13.45-41.29 24.69-65.9 31.21-48.86 12.95-100.54 14.68-146.6 6.67-45.92-7.98-87-25.8-113.89-52.7-35.1-35.1-33.43-94.88 3.3-128.88l5.81-5.39 14.54-43.28L83.2 431.2l-.24-.47c-4.9-9.6-8.15-25.68-7.99-37.9l.09-6.88-1.64-1.36C42.09 358.55 17.2 305.1 11.09 253.6l-2.03-17.09-.12-.94.12-.95 2.08-17.41c6.73-56.4 29.31-101.25 69.48-137.46 4.03-3.63 6.56-6.08 8.1-7.8.7-.8 1.06-1.27 1.21-1.5 3.56-15.91 17.7-29.74 35.33-39.99 18.23-10.59 41.86-18.36 66.93-21.18Z"/>
  <path fill="url(#a)" d="M192.19 9.28c34.28-3.85 69.6 1.23 97.5 12.01 13.96 5.4 26.33 12.33 35.84 20.54 9.3 8.02 16.26 17.66 18.7 28.62.15.22.5.7 1.21 1.5 1.55 1.72 4.07 4.17 8.1 7.8 40.17 36.2 62.75 81.06 69.49 137.46l2.08 17.41.11.95-.11.94-2.03 17.1c-6.07 51.1-30.62 104.1-61.59 130.36l-.73.62-1.65 1.36.1 6.88c.15 11.84-2.9 27.3-7.55 36.99l-.46.92-.24.48 14.17 42.06 14.6 43.32 5.76 5.34c26.7 24.71 34.4 59.22 23.22 97.43-4.9 16.77-18.93 32.93-36.9 46.23-18.17 13.45-41.29 24.69-65.9 31.21-48.86 12.95-100.54 14.68-146.6 6.67-45.92-7.98-87-25.8-113.89-52.7-35.1-35.1-33.43-94.88 3.3-128.88l5.81-5.39 14.54-43.28L83.2 431.2l-.24-.47c-4.9-9.6-8.15-25.68-7.99-37.9l.09-6.88-1.64-1.36C42.09 358.55 17.2 305.1 11.09 253.6l-2.03-17.09-.12-.94.12-.95 2.08-17.41c6.73-56.4 29.31-101.25 69.48-137.46 4.03-3.63 6.56-6.08 8.1-7.8.7-.8 1.06-1.27 1.21-1.5 3.56-15.91 17.7-29.74 35.33-39.99 18.23-10.59 41.86-18.36 66.93-21.18Z"/>
  <path stroke="currentColor" stroke-width="16" d="M192.19 9.28c34.28-3.85 69.6 1.23 97.5 12.01 13.96 5.4 26.33 12.33 35.84 20.54 9.3 8.02 16.26 17.66 18.7 28.62.15.22.5.7 1.21 1.5 1.55 1.72 4.07 4.17 8.1 7.8 40.17 36.2 62.75 81.06 69.49 137.46l2.08 17.41.11.95-.11.94-2.03 17.1c-6.07 51.1-30.62 104.1-61.59 130.36l-.73.62-1.65 1.36.1 6.88c.15 11.84-2.9 27.3-7.55 36.99l-.46.92-.24.48 14.17 42.06 14.6 43.32 5.76 5.34c26.7 24.71 34.4 59.22 23.22 97.43-4.9 16.77-18.93 32.93-36.9 46.23-18.17 13.45-41.29 24.69-65.9 31.21-48.86 12.95-100.54 14.68-146.6 6.67-45.92-7.98-87-25.8-113.89-52.7-35.1-35.1-33.43-94.88 3.3-128.88l5.81-5.39 14.54-43.28L83.2 431.2l-.24-.47c-4.9-9.6-8.15-25.68-7.99-37.9l.09-6.88-1.64-1.36C42.09 358.55 17.2 305.1 11.09 253.6l-2.03-17.09-.12-.94.12-.95 2.08-17.41c6.73-56.4 29.31-101.25 69.48-137.46 4.03-3.63 6.56-6.08 8.1-7.8.7-.8 1.06-1.27 1.21-1.5 3.56-15.91 17.7-29.74 35.33-39.99 18.23-10.59 41.86-18.36 66.93-21.18Z"/>
  <defs>
    <pattern id="a" width="1" height="1" patternContentUnits="objectBoundingBox">
      <use xlink:href="#b" transform="matrix(.0026 0 0 .00152 0 0)"/>
    </pattern>
    <image xlink:href="/img/portfolio/gumball.webp" id="b" width="384" height="657" preserveAspectRatio="none"/>
  </defs>
</svg>
