<svg xmlns="http://www.w3.org/2000/svg" xml:space="preserve" viewBox="0 0 566.93 566.93">
  <path fill="currentColor" d="m283.84 286.4 14.07 280.53h28.48l-42.43-280.69-.08-.56L296.9.01h-28.56l15.07 286.38.42.01M281.53 285.98l.11.06-262.17 280.9h48.8L281.8 286.12l.32.18-172 280.62h36.95l135.2-280.54.15.09L180.6 566.93h31.09l70.9-280.36.18.1-.18-.13.03-.1.19.15-41.61 280.34h28.46l13.33-280.56.05.06-.05-.07v-.09l.08.14-.07-.18v-.06l.07.25-.06-.39.01-.24h.08-.08l.1-.13h-.1l.07-.18-.05.01.03-.62-.1.63-.04.01-.03-.19.12-.46-.13.37-.01-.08.14-.3-.15.25-.03-.16.07-.04-.07.03-.02-.13.04-.06-.04.05L239.34 0h-30l73.28 284.72-.15.1L177.65.01h-34.1l138.79 284.92-.17.12L105.83 0H63.18l218.86 285.13-.36.26L13.3 0H4.25C2.82 1.42 1.41 2.86 0 4.29V41.1l281.5 244.37-.62-.13L0 87.4v40.33l280.13 157.47L0 163.7v33.1l277.12 87.76L0 227.69v29.68L280 285.5l.56.17L0 286.23v28.94l280.57-29.25-.37.16L0 344.84v31.11l277.54-88.7L0 408.97v36.21l280.32-158.82h.01L0 485.62v46.63l281.05-246.12.48-.15"/>
  <path fill="currentColor" d="m284.44 286.45.01.06-.17.13.18-.1 71.53 280.4h31.17L284.6 286.43l.11-.06 135.99 280.55h37L284.87 286.3l.12-.07h-.3l.09-.08-.04-.06-.1.12.01.03-.1.05-.01-.05h-.16l.05.19-.17.18.18-.16"/>
  <path fill="currentColor" d="M566.93 444.3v-36.11L288.66 286.64l278.27 88.53V344.1L289 286.2h-1.31l-.5-.21 1.58.16-2.32-.49-.28-.11.48-.27 280.28-29.74v-29.78L289.07 284.5l277.86-89.66v-33.25L289.1 283.88l277.82-158.46V84.89l-280.35 200.1-.66.17 281-247V4.14c-1.36-1.39-2.71-2.78-4.1-4.14h-12.3L285.54 285.23l-.06.02-.28-.12L501.1 0h-42.25L285.04 285.06l-.3-.13L421.35 0H387.4L284.6 284.84l-.1-.07L355.84 0h-29.9l-41.61 284.65-.04-.03.04.03-.01.08-.07-.03.06.04-.02.18-.14-.15.14.18-.04.25-.22-.34.04.13-.07-.12.12.3h-.06l.14.34-.26.05.26-.02-.02.14.07.02v-.01h.03l-.02.05.03.1.06-.12v-.03l.03-.03.13.05-.09-.15.27-.08.05.06-.12.18.11.01.08-.1.07.1-.03.02.1.06.06-.02-.04.05.06.08.11-.1-.05-.05.1.01.28-.14.08.08-.12.09.25.02.38.04-.18-.12 1.45.46h-.41l280 158.08"/>
  <path fill="currentColor" d="m566.93 284.22-277.7 1.98 277.7 28.37ZM548.66 566.93l-263.15-280.7h-.25l214.37 280.7h49.03M566.93 484.67 286.54 286.22h-.42l280.8 244.96v-46.5"/>
</svg>
