<svg xmlns="http://www.w3.org/2000/svg" viewBox="0 0 400 400">
  <path fill="currentColor" fill-rule="evenodd" d="M148.44 30.3 99.22 49.59l-.4 63.94-.42 63.95-21.46 8.37c-11.81 4.6-33.95 13.26-49.2 19.24L0 215.95v67.02C0 319.84.22 350 .5 350c.27 0 22.75 8.72 49.96 19.37l49.48 19.37 49.78-19.51 49.8-19.51 48.3 18.89c26.57 10.39 49.7 18.89 51.38 18.89 1.69 0 25.06-8.59 51.93-19.08L400 349.33V216.19l-49.97-19.42-49.96-19.43-.43-63.98-.42-63.98-49.13-19.22c-27.02-10.57-49.87-19.2-50.78-19.17-.9.03-23.8 8.72-50.87 19.32m10.54 53.32 31.65 12.33v54.36c0 29.9-.35 54.37-.77 54.37-.58 0-63.06-24.22-75.4-29.23-1.52-.62-1.96-13.16-1.96-55.3V65.63l7.42 2.83c4.08 1.55 21.66 8.38 39.06 15.16m125.8 91.45c-1.36 1.2-74.09 29.6-75.82 29.6-.63 0-1.14-24.43-1.13-54.29l.02-54.3 38.66-15.01 38.65-15.01.4 53.97c.23 29.7-.12 54.46-.77 55.04m-136.35 30.44c15.04 5.82 27.83 11 28.43 11.51.6.52-17.35 8.12-39.89 16.9l-40.97 15.96-34.73-13.56c-19.1-7.46-34.72-13.97-34.72-14.46 0-.49 18.1-7.96 40.24-16.61l40.23-15.72 7.03 2.7 34.38 13.28m192.6 3.07c17.78 6.88 32.33 12.85 32.33 13.28 0 .44-15.8 6.91-35.12 14.4l-35.1 13.6-40.81-15.91c-28.66-11.19-40.15-16.34-38.6-17.33 1.23-.76 16.95-7.16 34.94-14.2l32.73-12.83 8.64 3.25c4.76 1.78 23.2 8.87 40.99 15.74m-148.86 76.18-.02 51.95-41.12 16.01c-22.61 8.81-41.6 16.02-42.17 16.02-.58 0-1.04-23.38-1.02-51.95l.03-51.96 40.98-15.96c22.54-8.78 41.51-15.99 42.16-16.02.64-.02 1.16 23.33 1.16 51.9m59.21-35.27 39.24 15.35v52.12c0 48.99-.17 52.06-2.74 51.12-1.5-.56-20.14-7.78-41.4-16.05l-38.68-15.04v-52.26c0-43.99.35-52.12 2.18-51.42l41.4 16.18"/>
</svg>
