<svg xmlns="http://www.w3.org/2000/svg" viewBox="0 0 48 48">
  <g style="stroke-width:3.33335">
    <path fill="#2854a1" d="M158.42 43.4c-.43-.35-4.48-3.4-13.03-3.4a41.14 41.14 0 0 0-6.72.57c-1.66-11.32-11.01-16.84-11.45-17.09l-2.3-1.32-1.5 2.18c-.12.16-2.78 4.02-4.08 9.52-1.53 6.46-.6 12.53 2.69 17.72-3.2 1.78-7.96 2.5-10.36 2.72V39.62a3.45 3.45 0 0 0-3.45-3.45H91.96V3.45A3.45 3.45 0 0 0 88.51 0H72.78a3.45 3.45 0 0 0-3.45 3.45v14.63H33.5a3.45 3.45 0 0 0-3.45 3.45v14.64H14.03a3.45 3.45 0 0 0-3.45 3.45v14.76H6.32a6.3 6.3 0 0 0-4.5 1.88A6.22 6.22 0 0 0 0 60.76c.12 9.47 1.8 18.57 4.87 26.31 3.63 9.17 8.95 15.96 15.8 20.15 7.88 4.82 20.7 7.58 35.18 7.58 6.77 0 13.53-.61 19.53-1.76a81.68 81.68 0 0 0 25.5-9.25 69.87 69.87 0 0 0 17.4-14.23c8.36-9.43 13.33-19.96 17.02-29.3l1.48.03c9.15 0 14.76-3.64 17.87-6.7 3.36-3.33 4.56-6.63 4.7-7l.65-1.92Z" style="stroke-width:11.1112" transform="matrix(.3 0 0 .3 0 6.78)"/>
    <path fill="#2496ed" d="M28.65 39.18H15.14c-.85 0-1.54.7-1.54 1.54v11.96c0 .85.69 1.54 1.54 1.54h13.5c.86 0 1.55-.69 1.55-1.54V40.72c0-.85-.69-1.54-1.54-1.54z" style="stroke-width:11.1112" transform="matrix(.3 0 0 .3 0 6.78)"/>
    <path fill="#2854a1" d="M18.13 50.83c0 .2-.17.38-.4.38H17a.39.39 0 0 1-.38-.38V42.6c0-.21.16-.39.38-.39h.75a.4.4 0 0 1 .39.39zm4.52 0c0 .2-.16.38-.38.38h-.75a.39.39 0 0 1-.39-.38V42.6c0-.21.17-.39.4-.39h.74a.4.4 0 0 1 .38.39zm4.52 0c0 .2-.17.38-.39.38h-.74a.39.39 0 0 1-.39-.38V42.6c0-.21.17-.39.39-.39h.74a.4.4 0 0 1 .4.39z" style="stroke-width:11.1112" transform="matrix(.3 0 0 .3 0 6.78)"/>
    <path fill="#2496ed" d="M48.1 39.18H34.6a1.54 1.54 0 0 0-1.55 1.54v11.96c0 .85.7 1.54 1.55 1.54h13.5c.86 0 1.55-.69 1.55-1.54V40.72c0-.85-.69-1.54-1.54-1.54z" style="stroke-width:11.1112" transform="matrix(.3 0 0 .3 0 6.78)"/>
    <path fill="#2854a1" d="M37.58 50.83c0 .2-.16.38-.38.38h-.75a.39.39 0 0 1-.39-.38V42.6c0-.21.17-.39.4-.39h.73a.4.4 0 0 1 .4.39zm4.53 0c0 .2-.17.38-.39.38h-.74a.39.39 0 0 1-.39-.38V42.6c0-.21.17-.39.39-.39h.74a.4.4 0 0 1 .4.39zm4.53 0c0 .2-.17.38-.39.38h-.74a.39.39 0 0 1-.39-.38V42.6c0-.21.17-.39.39-.39h.74a.4.4 0 0 1 .39.39z" style="stroke-width:11.1112" transform="matrix(.3 0 0 .3 0 6.78)"/>
    <path fill="#2496ed" d="M67.87 39.18h-13.5c-.86 0-1.55.7-1.55 1.54v11.96c0 .85.7 1.54 1.55 1.54h13.5c.86 0 1.55-.69 1.55-1.54V40.72c0-.85-.7-1.54-1.55-1.54z" style="stroke-width:11.1112" transform="matrix(.3 0 0 .3 0 6.78)"/>
    <path fill="#2854a1" d="M57.35 50.83c0 .2-.17.38-.39.38h-.74a.39.39 0 0 1-.39-.38V42.6c0-.21.17-.39.39-.39h.74a.4.4 0 0 1 .4.39zm4.52 0c0 .2-.17.38-.39.38h-.74a.39.39 0 0 1-.4-.38V42.6c0-.21.17-.39.4-.39h.74a.4.4 0 0 1 .39.39zm4.53 0c0 .2-.17.38-.4.38h-.73a.39.39 0 0 1-.4-.38V42.6c0-.21.17-.39.4-.39H66a.4.4 0 0 1 .39.39z" style="stroke-width:11.1112" transform="matrix(.3 0 0 .3 0 6.78)"/>
    <path fill="#2496ed" d="M87.4 39.18H73.89c-.85 0-1.54.7-1.54 1.54v11.96c0 .85.68 1.54 1.54 1.54h13.5c.86 0 1.55-.69 1.55-1.54V40.72c0-.85-.69-1.54-1.54-1.54z" style="stroke-width:11.1112" transform="matrix(.3 0 0 .3 0 6.78)"/>
    <path fill="#2854a1" d="M76.88 50.83c0 .2-.17.38-.4.38h-.74a.39.39 0 0 1-.38-.38V42.6c0-.21.16-.39.38-.39h.75a.4.4 0 0 1 .39.39zm4.51 0c0 .2-.16.38-.39.38h-.74a.39.39 0 0 1-.39-.38V42.6c0-.21.17-.39.4-.39H81a.4.4 0 0 1 .38.39zm4.53 0c0 .2-.17.38-.39.38h-.73a.39.39 0 0 1-.39-.38V42.6c0-.21.17-.39.4-.39h.73a.4.4 0 0 1 .4.39v8.22z" style="stroke-width:11.1112" transform="matrix(.3 0 0 .3 0 6.78)"/>
    <path fill="#2496ed" d="M48.1 21.1H34.6c-.86 0-1.55.69-1.55 1.54v11.95c0 .86.7 1.54 1.55 1.54h13.5c.86 0 1.55-.68 1.55-1.54V22.64c0-.85-.69-1.54-1.54-1.54z" style="stroke-width:11.1112" transform="matrix(.3 0 0 .3 0 6.78)"/>
    <path fill="#2854a1" d="M37.58 32.74a.39.39 0 0 1-.38.39h-.75a.39.39 0 0 1-.39-.39v-8.23c0-.2.17-.38.4-.38h.73c.22 0 .4.16.4.38zm4.53 0a.39.39 0 0 1-.39.39h-.74a.39.39 0 0 1-.39-.39v-8.23c0-.2.17-.38.39-.38h.74c.21 0 .4.16.4.38zm4.53 0a.39.39 0 0 1-.39.39h-.74a.39.39 0 0 1-.39-.39v-8.23c0-.2.17-.38.39-.38h.74c.21 0 .39.16.39.38z" style="stroke-width:11.1112" transform="matrix(.3 0 0 .3 0 6.78)"/>
    <path fill="#2496ed" d="M67.87 21.1h-13.5c-.86 0-1.55.69-1.55 1.54v11.95c0 .86.7 1.54 1.55 1.54h13.5c.86 0 1.55-.68 1.55-1.54V22.64c0-.85-.7-1.54-1.55-1.54z" style="stroke-width:11.1112" transform="matrix(.3 0 0 .3 0 6.78)"/>
    <path fill="#2854a1" d="M57.35 32.74a.39.39 0 0 1-.39.39h-.74a.39.39 0 0 1-.39-.39v-8.23c0-.2.17-.38.39-.38h.74c.21 0 .4.16.4.38zm4.52 0a.39.39 0 0 1-.39.39h-.74a.39.39 0 0 1-.4-.39v-8.23c0-.2.17-.38.4-.38h.74c.21 0 .39.16.39.38zm4.53 0a.39.39 0 0 1-.4.39h-.73a.39.39 0 0 1-.4-.39v-8.23c0-.2.17-.38.4-.38H66c.2 0 .39.16.39.38z" style="stroke-width:11.1112" transform="matrix(.3 0 0 .3 0 6.78)"/>
    <path fill="#2496ed" d="M87.4 21.1H73.89c-.85 0-1.54.69-1.54 1.54v11.95c0 .86.68 1.54 1.54 1.54h13.5c.86 0 1.55-.68 1.55-1.54V22.64c0-.85-.69-1.54-1.54-1.54z" style="stroke-width:11.1112" transform="matrix(.3 0 0 .3 0 6.78)"/>
    <path fill="#2854a1" d="M76.88 32.74a.39.39 0 0 1-.4.39h-.74a.39.39 0 0 1-.38-.39v-8.23c0-.2.16-.38.38-.38h.75c.2 0 .39.16.39.38zm4.51 0a.39.39 0 0 1-.39.39h-.74a.39.39 0 0 1-.39-.39v-8.23c0-.2.17-.38.4-.38H81c.2 0 .38.16.38.38zm4.53 0a.39.39 0 0 1-.39.39h-.73a.39.39 0 0 1-.39-.39v-8.23c0-.2.17-.38.4-.38h.73c.21 0 .4.16.4.38v8.23z" style="stroke-width:11.1112" transform="matrix(.3 0 0 .3 0 6.78)"/>
    <path fill="#2496ed" d="M87.4 3.02H73.89c-.85 0-1.54.68-1.54 1.54V16.5c0 .85.68 1.54 1.54 1.54h13.5c.86 0 1.55-.69 1.55-1.54V4.56c0-.86-.69-1.54-1.54-1.54z" style="stroke-width:11.1112" transform="matrix(.3 0 0 .3 0 6.78)"/>
    <path fill="#2854a1" d="M76.88 14.66c0 .2-.17.39-.4.39h-.74a.39.39 0 0 1-.38-.4V6.44c0-.21.16-.39.38-.39h.75c.2 0 .39.17.39.39zm4.51 0c0 .2-.16.39-.39.39h-.74a.39.39 0 0 1-.39-.4V6.44c0-.21.17-.39.4-.39H81c.2 0 .38.17.38.39zm4.53 0c0 .2-.17.39-.39.39h-.73a.39.39 0 0 1-.39-.4V6.44c0-.21.17-.39.4-.39h.73c.21 0 .4.17.4.39v8.23z" style="stroke-width:11.1112" transform="matrix(.3 0 0 .3 0 6.78)"/>
    <path fill="#2496ed" d="M107.1 39.18H93.6c-.86 0-1.55.7-1.55 1.54v11.96c0 .85.69 1.54 1.54 1.54h13.51c.85 0 1.54-.69 1.54-1.54V40.72c0-.85-.7-1.54-1.54-1.54z" style="stroke-width:11.1112" transform="matrix(.3 0 0 .3 0 6.78)"/>
    <path fill="#2854a1" d="M96.57 50.83c0 .2-.17.38-.4.38h-.74a.39.39 0 0 1-.38-.38V42.6c0-.21.16-.39.38-.39h.75a.4.4 0 0 1 .39.39zm4.53 0c0 .2-.17.38-.4.38h-.74a.39.39 0 0 1-.39-.38V42.6c0-.21.17-.39.4-.39h.74a.4.4 0 0 1 .38.39zm4.52 0c0 .2-.16.38-.38.38h-.75a.39.39 0 0 1-.39-.38V42.6c0-.21.17-.39.4-.39h.73a.4.4 0 0 1 .4.39z" style="stroke-width:11.1112" transform="matrix(.3 0 0 .3 0 6.78)"/>
    <path fill="#2496ed" d="M2.89 60.5a3.21 3.21 0 0 1 3.2-3.24h104.3c.76 0 11.14-.55 15.61-5.08-10.01-12.14-.23-26.2-.23-26.2S136 31.88 136 44.03c14.43-3.34 20.6 1.6 20.6 1.6s-4.6 13.42-23.23 11.6c-6.93 17.98-19.6 45.47-58.56 52.98-16.84 3.24-40.27 2.13-52.64-5.44-13.54-8.3-19.15-27.2-19.3-44.28Z" style="stroke-width:11.1112" transform="matrix(.3 0 0 .3 0 6.78)"/>
    <path fill="#fff" d="M51.31 89.07c2.9 0 5.25-2.37 5.25-5.28 0-2.92-2.35-5.28-5.25-5.28s-5.25 2.36-5.25 5.28a5.26 5.26 0 0 0 5.25 5.28z" style="stroke-width:11.1112" transform="matrix(.3 0 0 .3 0 6.78)"/>
    <path fill="#2854a1" d="M51.76 82.17a1.5 1.5 0 0 1 .3-1.28 2.88 2.88 0 0 0-1.4-.03 3 3 0 0 0-2.25 3.6 3.01 3.01 0 0 0 3.6 2.28 3 3 0 0 0 2.25-3.6l-.06-.17a1.47 1.47 0 0 1-.63.34 1.51 1.51 0 0 1-1.81-1.14Z" style="stroke-width:11.1112" transform="matrix(.3 0 0 .3 0 6.78)"/>
    <path fill="#fff" d="M42.01 94.9s0 .02-.02.02a42.1 42.1 0 0 1-21.46 5.87 44 44 0 0 1-3.68-.2 29.9 29.9 0 0 0 5.33 4.16c8.12 4.97 21 7.17 33.66 7.17 2.61 0 5.2-.1 7.75-.28A40.59 40.59 0 0 1 42 94.91z" style="stroke-width:11.1112" transform="matrix(.3 0 0 .3 0 6.78)"/>
    <path fill="#2854a1" d="M20.53 100.78a49 49 0 0 1-6.3-.45c-.79-.11-1.72-3.14-.92-3.01 1.72.24 5.28.6 7.22.6a39.13 39.13 0 0 0 19.98-5.47 1.45 1.45 0 0 1 1.98.5c.4.67.18 1.56-.5 1.97a42.1 42.1 0 0 1-21.46 5.87z" style="stroke-width:11.1112" transform="matrix(.3 0 0 .3 0 6.78)"/>
  </g>
</svg>
