<svg xmlns="http://www.w3.org/2000/svg" viewBox="0 0 128 128">
  <linearGradient id="a" x1="64" x2="64" y1="119.49" y2="39.93" gradientTransform="matrix(1 0 0 -1 0 128)" gradientUnits="userSpaceOnUse">
    <stop offset="0" stop-color="#424242"/>
    <stop offset=".27" stop-color="#353535"/>
    <stop offset=".76" stop-color="#131313"/>
    <stop offset="1"/>
  </linearGradient>
  <path fill="url(#a)" d="M120 88H8a4 4 0 0 1-4-4V12a4 4 0 0 1 4-4h112a4 4 0 0 1 4 4v72a4 4 0 0 1-4 4z"/>
  <linearGradient id="b" x1="64" x2="64" y1="119.49" y2="39.93" gradientTransform="matrix(1 0 0 -1 0 128)" gradientUnits="userSpaceOnUse">
    <stop offset="0" stop-color="#BFBEBE"/>
    <stop offset=".15" stop-color="#212121" stop-opacity="0"/>
    <stop offset=".78" stop-color="#212121" stop-opacity="0"/>
    <stop offset="1" stop-color="#BFBEBE"/>
  </linearGradient>
  <path fill="url(#b)" d="M120 88H8a4 4 0 0 1-4-4V12a4 4 0 0 1 4-4h112a4 4 0 0 1 4 4v72a4 4 0 0 1-4 4z" opacity=".3"/>
  <linearGradient id="c" x1="4.59" x2="123.94" y1="80" y2="80" gradientTransform="matrix(1 0 0 -1 0 128)" gradientUnits="userSpaceOnUse">
    <stop offset="0" stop-color="#BFBEBE"/>
    <stop offset=".1" stop-color="#212121" stop-opacity="0"/>
    <stop offset=".9" stop-color="#212121" stop-opacity="0"/>
    <stop offset="1" stop-color="#BFBEBE"/>
  </linearGradient>
  <path fill="url(#c)" d="M119.83 88h-112a4 4 0 0 1-4-4V12a4 4 0 0 1 4-4h112a4 4 0 0 1 4 4v72a4 4 0 0 1-4 4z" opacity=".3"/>
  <path fill="#76FF03" d="M12 16h24v4H12zm74 0h16v4H86zm22 0h8v4h-8zM20 28h8v4h-8zm-8 12h16v4H12zm0 12h8v4h-8zm86 0h12v4H98zm6-12h12v4h-12zM12 64h16v4H12zm84 0h20v4H96zm4-36h12v4h-12z"/>
  <path fill="#543930" d="M98.9 79.76c-1.25-2.27.34-4.58 3.06-7.44 4.31-4.54 9-15.07 4.64-25.76.03-.06-.86-1.86-.83-1.92l-1.79-.09c-.57-.08-20.26-.12-39.97-.12s-39.4.04-39.97.12c0 0-2.65 1.95-2.63 2.01-4.35 10.69.33 21.22 4.64 25.76 2.71 2.86 4.3 5.17 3.06 7.44-1.21 2.21-4.81 2.53-4.81 2.53s.83 2.26 2.83 3.48c1.85 1.13 4.13 1.39 5.7 1.43 0 0 6.15 8.51 22.23 8.51h17.9c16.08 0 22.23-8.51 22.23-8.51 1.57-.04 3.85-.3 5.7-1.43 2-1.22 2.83-3.48 2.83-3.48s-3.61-.33-4.82-2.53z"/>
  <radialGradient id="d" cx="99.64" cy="45.94" r="23.42" gradientTransform="matrix(1 0 0 .4912 -21.05 59.5)" gradientUnits="userSpaceOnUse">
    <stop offset=".73" stop-color="#6D4C41" stop-opacity="0"/>
    <stop offset="1" stop-color="#6D4C41"/>
  </radialGradient>
  <path fill="url(#d)" d="M63.99 95.7v-9.44L92.56 84l2.6 3.2s-6.15 8.51-22.23 8.51l-8.94-.01z"/>
  <radialGradient id="e" cx="76.57" cy="49.42" r="6.92" gradientTransform="matrix(-.9057 .4238 -.3144 -.6719 186.54 79.33)" gradientUnits="userSpaceOnUse">
    <stop offset=".66" stop-color="#6D4C41"/>
    <stop offset="1" stop-color="#6D4C41" stop-opacity="0"/>
  </radialGradient>
  <path fill="url(#e)" d="M95.1 83.07c-4.28-6.5 5.21-8.93 5.21-8.93l.01.01c-1.65 2.05-2.4 3.84-1.43 5.61 1.21 2.21 4.81 2.53 4.81 2.53s-4.91 4.36-8.6.78z"/>
  <radialGradient id="f" cx="94.51" cy="69" r="30.4" gradientTransform="matrix(-.0746 -.9972 .8311 -.0622 33.42 157.54)" gradientUnits="userSpaceOnUse">
    <stop offset=".72" stop-color="#6D4C41" stop-opacity="0"/>
    <stop offset="1" stop-color="#6D4C41"/>
  </radialGradient>
  <path fill="url(#f)" d="M106.62 46.56c4.25 10.35-.22 21.01-4.41 25.51-.57.62-3.01 3.01-3.57 4.92 0 0-9.54-13.31-12.39-21.13-.57-1.58-1.1-3.2-1.17-4.88a6.56 6.56 0 0 1 .87-3.83c.89-1.31 20.16-1.7 20.16-1.7l.51 1.11z"/>
  <radialGradient id="g" cx="44.31" cy="69" r="30.4" gradientTransform="matrix(.0746 -.9972 -.8311 -.0622 98.35 107.48)" gradientUnits="userSpaceOnUse">
    <stop offset=".72" stop-color="#6D4C41" stop-opacity="0"/>
    <stop offset="1" stop-color="#6D4C41"/>
  </radialGradient>
  <path fill="url(#g)" d="M21.4 46.56c-4.25 10.35.22 21.01 4.41 25.51.58.62 3.01 3.01 3.57 4.92 0 0 9.54-13.31 12.39-21.13.58-1.58 1.1-3.2 1.17-4.88a6.56 6.56 0 0 0-.87-3.83c-.89-1.31-1.93-.96-3.44-.96-2.88 0-15.49-.74-16.47-.74.01.01-.76 1.11-.76 1.11z"/>
  <radialGradient id="h" cx="49.44" cy="45.94" r="23.42" gradientTransform="matrix(-1 0 0 .4912 98.88 59.5)" gradientUnits="userSpaceOnUse">
    <stop offset=".73" stop-color="#6D4C41" stop-opacity="0"/>
    <stop offset="1" stop-color="#6D4C41"/>
  </radialGradient>
  <path fill="url(#h)" d="M64.03 95.7v-9.44L35.46 84l-2.6 3.2s6.15 8.51 22.23 8.51l8.94-.01z"/>
  <radialGradient id="i" cx="26.37" cy="49.42" r="6.92" gradientTransform="matrix(.9057 .4238 .3144 -.6719 -13.05 100.6)" gradientUnits="userSpaceOnUse">
    <stop offset=".66" stop-color="#6D4C41"/>
    <stop offset="1" stop-color="#6D4C41" stop-opacity="0"/>
  </radialGradient>
  <path fill="url(#i)" d="M32.92 83.07c4.28-6.5-5.21-8.93-5.21-8.93l-.01.01c1.65 2.05 2.4 3.84 1.43 5.61-1.21 2.21-4.81 2.53-4.81 2.53s4.91 4.36 8.6.78z"/>
  <path fill="#E59600" d="M91.33 50.34H36.67c-5.89 0-10.71 5.13-10.71 11.41s4.82 11.41 10.71 11.41h54.65c5.89 0 10.71-5.14 10.71-11.41.01-6.27-4.81-11.41-10.7-11.41z"/>
  <path fill="#FFCA28" d="M64 10.98c-17.4 0-33.52 18.61-33.52 45.4 0 26.64 16.61 39.81 33.52 39.81s33.52-13.17 33.52-39.81c0-26.79-16.12-45.4-33.52-45.4z"/>
  <path fill="#6D4C41" d="M54.8 49.72c-.93-1.23-3.07-3.01-7.23-3.01s-6.31 1.79-7.23 3.01a1.27 1.27 0 0 0-.02 1.55c.26.35 1.04.68 1.9.39s2.54-1.16 5.35-1.18c2.81.02 4.49.89 5.35 1.18.86.29 1.64-.03 1.9-.39.28-.37.39-1-.02-1.55zm32.87 0c-.93-1.23-3.07-3.01-7.23-3.01s-6.31 1.79-7.23 3.01a1.27 1.27 0 0 0-.02 1.55c.26.35 1.04.68 1.9.39s2.54-1.16 5.35-1.18c2.81.02 4.49.89 5.35 1.18.86.29 1.64-.03 1.9-.39.28-.37.39-1-.02-1.55z"/>
  <g fill="#404040">
    <ellipse cx="47.56" cy="58.72" rx="4.93" ry="5.1"/>
    <ellipse cx="80.44" cy="58.72" rx="4.93" ry="5.1"/>
  </g>
  <path fill="#795548" d="M72.42 76.05c-3.18 1.89-13.63 1.89-16.81 0-1.83-1.09-3.7.58-2.94 2.24.75 1.63 6.44 5.42 11.37 5.42s10.55-3.79 11.3-5.42c.75-1.66-1.09-3.33-2.92-2.24z"/>
  <path fill="#E59600" d="M67.86 67.96a1.25 1.25 0 0 0-.32-.08h-7.08c-.11.01-.22.04-.32.08-.64.26-.99.92-.69 1.63.3.71 1.71 2.69 4.55 2.69s4.25-1.99 4.55-2.69c.3-.7-.05-1.37-.69-1.63z"/>
  <path fill="#543930" d="M104.07 25.02c-2.44-3.69-7.91-8.64-12.82-8.97-.79-4.72-5.84-8.72-10.73-10.27-13.23-4.19-21.84.51-26.46 3.03-.96.52-7.17 3.97-11.51 1.5-2.72-1.55-2.67-5.74-2.67-5.74s-8.52 3.25-5.61 12.3c-2.93.12-6.77 1.36-8.8 5.47a13.9 13.9 0 0 0-.86 10.95c-2.52 2.14-5.69 6.69-3.52 12.6 1.64 4.45 8.17 6.5 8.17 6.5-.62 10.74 2.28 15.95 2.28 15.95s4.69-18.45 4.3-21.27c0 0 7.76-1.54 16.57-6.58 5.95-3.41 10.02-7.4 16.71-8.91 10.18-2.29 12.45 5.08 12.45 5.08s9.42-1.81 12.26 11.27c1.17 5.38 1.93 14.3 2.57 19.77-.06-.48 3.24-6.33 3.86-12.33.16-1.55 4.34-3.6 6.14-10.26 2.39-8.88-.56-17.42-2.33-20.09z"/>
  <radialGradient id="j" cx="82.02" cy="85.04" r="35.63" gradientTransform="matrix(.3076 .9515 .706 -.2282 -3.25 -15.68)" gradientUnits="userSpaceOnUse">
    <stop offset=".7" stop-color="#6D4C41" stop-opacity="0"/>
    <stop offset="1" stop-color="#6D4C41"/>
  </radialGradient>
  <path fill="url(#j)" d="M100.22 55.41c.16-1.55 4.34-3.6 6.14-10.26.19-.71.35-1.43.5-2.15 1.46-8.09-1.16-15.52-2.79-17.98-2.26-3.41-7.1-7.89-11.69-8.81-.4-.05-.79-.1-1.16-.12 0 0 .33 2.15-.54 3.86-1.12 2.22-3.41 2.75-3.41 2.75 11.97 11.97 11.12 22 12.95 32.71z"/>
  <radialGradient id="k" cx="47.28" cy="123.89" r="9.34" gradientTransform="matrix(.8813 .4726 .5603 -1.045 -63.8 111.23)" gradientUnits="userSpaceOnUse">
    <stop offset=".58" stop-color="#6D4C41"/>
    <stop offset="1" stop-color="#6D4C41" stop-opacity="0"/>
  </radialGradient>
  <path fill="url(#k)" d="M56.95 7.3c-1.1.53-2.06 1.06-2.9 1.51-.96.52-7.17 3.97-11.51 1.5-2.67-1.52-2.67-5.58-2.67-5.72-1.23 1.57-4.95 12.78 5.93 13.53 4.69.32 7.58-3.77 9.3-7.23.62-1.27 1.59-3.1 1.85-3.59z"/>
  <radialGradient id="l" cx="158.97" cy="62.81" r="28.7" gradientTransform="matrix(-.9378 -.3944 -.2182 .5285 230.93 50.57)" gradientUnits="userSpaceOnUse">
    <stop offset=".7" stop-color="#6D4C41" stop-opacity="0"/>
    <stop offset="1" stop-color="#6D4C41"/>
  </radialGradient>
  <path fill="url(#l)" d="M79.16 5.38c7.32 1.98 11.23 5.87 12.08 10.68.26 1.48.77 15.08-25.23-.4-9.67-5.76-7.03-9.36-5.9-9.77 4.42-1.6 10.85-2.73 19.05-.51z"/>
  <radialGradient id="m" cx="43.53" cy="115.37" r="8.57" gradientTransform="matrix(1 0 0 -1.2233 0 153.76)" gradientUnits="userSpaceOnUse">
    <stop offset=".7" stop-color="#6D4C41" stop-opacity="0"/>
    <stop offset="1" stop-color="#6D4C41"/>
  </radialGradient>
  <path fill="url(#m)" d="m39.84 4.59-.06.03h-.01c-.93.39-8.24 3.78-5.51 12.26l7.78 1.25c-6.89-6.98-2.17-13.55-2.17-13.55l-.03.01z"/>
  <radialGradient id="n" cx="42.35" cy="100.23" r="16.08" gradientTransform="matrix(-.9657 -.2598 -.2432 .9037 107.62 -51.8)" gradientUnits="userSpaceOnUse">
    <stop offset=".66" stop-color="#6D4C41" stop-opacity="0"/>
    <stop offset="1" stop-color="#6D4C41"/>
  </radialGradient>
  <path fill="url(#n)" d="m39.07 17.64-4.81-.77c-.19 0-.83.06-1.18.11-2.71.38-5.9 1.78-7.63 5.36-1.86 3.86-1.81 7.17-1.3 9.38.15.74.45 1.58.45 1.58s2.38-2.26 8.05-2.41l6.42-13.25z"/>
  <radialGradient id="o" cx="38.53" cy="84.7" r="16.89" gradientTransform="matrix(.9907 .1363 .1915 -1.3921 -15.86 155.96)" gradientUnits="userSpaceOnUse">
    <stop offset=".6" stop-color="#6D4C41" stop-opacity="0"/>
    <stop offset="1" stop-color="#6D4C41"/>
  </radialGradient>
  <path fill="url(#o)" d="M24.37 33.49c-2.37 2.1-5.56 6.79-3.21 12.61 1.77 4.39 8.09 6.29 8.09 6.29 0 .02 1.26.4 1.91.4l1.48-21.9c-3.03 0-5.94.91-7.82 2.22.03.03-.46.35-.45.38z"/>
  <linearGradient id="p" x1="5.63" x2="22.47" y1="9.82" y2="9.82" gradientTransform="matrix(1 0 0 -1 0 128)" gradientUnits="userSpaceOnUse">
    <stop offset="0" stop-color="#FB8C00"/>
    <stop offset=".48" stop-color="#F67F00"/>
    <stop offset="1" stop-color="#EF6C00"/>
  </linearGradient>
  <path fill="url(#p)" d="M7.63 123.98h12.83c1.12-.09 2.01-1.18 2.01-2.52v-.65c0-3.58-1.61-6.71-4.02-8.45l.01.45c0 4.1-1.98 7.42-4.41 7.42s-4.41-3.32-4.41-7.42l.01-.45c-2.41 1.75-4.02 4.87-4.02 8.45v.65c-.01 1.35.88 2.43 2 2.52z"/>
  <path fill="#E14301" d="M14.05 120.24c9 0 4.41-3.32 4.41-7.42l-.01-.45c-1.28-.93-2.79-1.48-4.4-1.48s-3.12.55-4.4 1.48l-.01.45c-.01 4.1-4.64 7.42 4.41 7.42z"/>
  <linearGradient id="q" x1="20.43" x2="10.75" y1="15.08" y2="28.86" gradientTransform="matrix(1 0 0 -1 0 128)" gradientUnits="userSpaceOnUse">
    <stop offset="0" stop-color="#FFB300"/>
    <stop offset=".5" stop-color="#FFCA28"/>
  </linearGradient>
  <path fill="url(#q)" d="M27.98 106.8c-.11-2.84-2.23-8.7-5-9.19a.6.6 0 0 1-.41-.25c-.44-.67-1.85-2.47-4.43-1.05-.96.53-1.3 1-1.14 1.68-.12.14-.34.31-.66.18-1.04-1.16-2.32-1.4-3.81-.24-1.69 1.32-1.69 2.26-1.39 3.19l-.01.01s-.07.65-.56.6c-.51-.44-1.12-.44-2.09.26-2.6 1.88-1.53 3.66-1.09 4.71a.32.32 0 0 1-.32.16c-.34-.18-.77-.18-1.35.15-1.38.79-1.18 3.39-.79 4.24.43.93 2.8 4.19 3.61 5.11.19.21.42.36.67.46a.69.69 0 0 1-.08-.03c.71.44 1.95.97 3.16.22 0 0 .77-.56.84-1.15 1.31.73 3.12-.63 3.12-.63.85-.65 1.07-1.38 1.04-2.01.43.26.9.36 1.35.37a5.23 5.23 0 0 0 2.61-.76c1.95-1.11 2.34-2.27 2.33-3.04 1.01.63 2.26.16 2.26.16 2.21-1 2.14-3.15 2.14-3.15z"/>
  <linearGradient id="r" x1="99.2" x2="120.8" y1="9.15" y2="9.15" gradientTransform="matrix(1 0 0 -1 0 128)" gradientUnits="userSpaceOnUse">
    <stop offset="0" stop-color="#FB8C00"/>
    <stop offset=".48" stop-color="#F67F00"/>
    <stop offset="1" stop-color="#EF6C00"/>
  </linearGradient>
  <path fill="url(#r)" d="M107.96 123.98h12.84s.56-9.79-15.16-10.26c-15.73-.46 2.32 10.26 2.32 10.26z"/>
  <linearGradient id="s" x1="141.62" x2="131.94" y1="10.24" y2="24.02" gradientTransform="rotate(180 124.32 64)" gradientUnits="userSpaceOnUse">
    <stop offset="0" stop-color="#FFB300"/>
    <stop offset=".5" stop-color="#FFCA28"/>
  </linearGradient>
  <path fill="url(#s)" d="M99.46 111.64c.11-2.84 2.23-8.7 5-9.19a.6.6 0 0 0 .41-.25c.44-.67 1.85-2.47 4.43-1.05.96.53 1.3 1 1.14 1.68.12.14.34.31.66.18 1.04-1.16 2.32-1.4 3.81-.24 1.69 1.32 1.69 2.26 1.39 3.19l.01.01s.07.65.56.6c.51-.44 1.12-.44 2.09.26 2.6 1.88 1.53 3.66 1.09 4.71.06.1.15.17.32.16.34-.18.77-.18 1.35.15 1.38.79 1.18 3.39.79 4.24-.43.93-2.79 4.19-3.61 5.11a1.79 1.79 0 0 1-.59.43c-.71.44-1.95.97-3.16.22 0 0-.77-.56-.84-1.15-1.31.73-3.12-.63-3.12-.63-.85-.65-1.07-1.38-1.04-2.01-.43.26-.9.36-1.35.37a5.23 5.23 0 0 1-2.61-.76c-1.95-1.11-2.34-2.27-2.33-3.04-1.01.63-2.26.16-2.26.16-2.21-1-2.14-3.15-2.14-3.15z"/>
  <path fill="#EDA600" d="M116.24 121.56a2.5 2.5 0 0 1-.48-.32l-.07-.07c-.28-.31-.36-.81.37-1.81 2-2.65 2.79-4.63 2.79-4.63.55-1.39.35-1.62.35-1.62-.19-.31-.58.59-.58.59-1.98 3.57-3.34 5.13-3.93 5.71a.4.4 0 0 1-.09.05c-.11.07-.23.14-.36.19l-.16.06c-.11.04-.23.06-.35.08l-.19.02c-.13 0-.26-.01-.4-.04l-.18-.03a2.49 2.49 0 0 1-.9-.45l-.13-.12-.13-.12-.15-.19-.07-.1a1.96 1.96 0 0 1-.13-.25l-.04-.09c-.04-.09-.06-.19-.08-.29l-.03-.09c-.02-.1-.02-.21-.03-.31l-.01-.1c0-.11.02-.22.04-.33l.02-.13c.02-.11.07-.22.11-.34l.05-.14c2.28-3.22 3.46-6.03 3.46-6.03.38-.78.52-1.6.52-1.6-.25-.46-.65.21-.65.21-2.6 4.84-4.14 6.78-4.14 6.78s-1.21 2.11-3.86.53c0 0-1.31-.84-1.53-1.43-.19-.49-.31-1.36.36-2.6 0 0 1.59-3.25 4.21-7.34 0 0 .17-.64-.42-.28-.46.28-.79.86-.95 1.04 0 0-1.55 2.07-3.8 6.2 0 0-.5.95-1.08 1.42-.57.24-1.29.15-2.08-.44-1.71-1.28-1.07-3.07-.12-4.91.52-1 1.71-3.25 2.84-5.05.11-.04.22-.08.33-.1.36-.06.65-.25.83-.53.9-1.37.19-2.61-1.07-.7-3.16.54-5.4 6.72-5.51 9.77 0 .11-.05 2.59 2.51 3.73a3.8 3.8 0 0 0 2.01.14c.25.83.93 1.8 2.52 2.71.03.02 1.42.87 2.94.85.28-.01.56-.04.82-.11.16.52.5 1.09 1.18 1.61.08.06 1.64 1.23 3.14.93.29.46.71.78.82.86.46.29.95.44 1.45.48h.45a4.25 4.25 0 0 0 1.97-.67l.02-.01c1.55-1.06 3.78-5.49 3.78-5.94 0-.01-3.36 5.83-6.19 5.35zm-87.81-15.32c-.12-3.05-2.36-9.23-5.51-9.77-1.25-1.91-1.97-.67-1.07.7.18.28.48.46.83.53.11.02.22.06.33.1a81.72 81.72 0 0 1 2.84 5.05c.95 1.83 1.58 3.62-.12 4.91-.79.59-1.5.68-2.08.44-.57-.47-1.08-1.42-1.08-1.42a56.32 56.32 0 0 0-3.8-6.2c-.16-.18-.48-.75-.95-1.04-.59-.36-.42.28-.42.28 2.62 4.08 4.21 7.34 4.21 7.34.68 1.24.56 2.11.36 2.6-.22.59-1.53 1.43-1.53 1.43-2.64 1.58-3.86-.53-3.86-.53s-1.55-1.94-4.14-6.78c0 0-.41-.67-.65-.21 0 0 .14.82.52 1.6 0 0 1.18 2.8 3.46 6.03l.05.14.11.34.02.13c.02.11.04.22.04.33l-.01.1a1.55 1.55 0 0 1-.05.4c-.02.1-.05.2-.09.29l-.04.09-.13.25-.07.1-.15.19-.13.12a1.54 1.54 0 0 1-.41.31c-.22.12-.43.21-.62.26-.06.02-.12.02-.19.03-.14.02-.27.04-.4.04l-.19-.02c-.12-.02-.24-.04-.35-.08l-.16-.06a3.13 3.13 0 0 1-.36-.19l-.09-.05c-.59-.58-1.95-2.14-3.93-5.71 0 0-.39-.9-.58-.59 0 0-.2.24.35 1.62 0 0 .79 1.98 2.79 4.63.73 1 .65 1.5.37 1.81l-.07.07c-.14.13-.31.23-.48.32-2.83.49-6.2-5.36-6.2-5.36 0 .46 2.23 4.89 3.78 5.94l.02.01c.66.41 1.32.63 1.97.67h.45c.51-.04 1-.19 1.45-.48.11-.08.53-.41.82-.86 1.5.3 3.07-.87 3.14-.93a3.2 3.2 0 0 0 1.18-1.61c.26.07.53.11.82.11a6.05 6.05 0 0 0 2.94-.85c1.59-.9 2.27-1.88 2.52-2.71a3.9 3.9 0 0 0 2.01-.14 4.04 4.04 0 0 0 2.53-3.72z"/>
  <linearGradient id="t" x1="64" x2="64" y1="53.47" y2="-14.94" gradientTransform="matrix(1 0 0 -1 0 128)" gradientUnits="userSpaceOnUse">
    <stop offset="0" stop-color="#4DD0E1"/>
    <stop offset="1" stop-color="#00BCD4"/>
  </linearGradient>
  <path fill="url(#t)" d="M110 123.98V81.17c0-3.58-2.92-6.5-6.5-6.5h-79a6.51 6.51 0 0 0-6.5 6.5v42.82h92z"/>
  <linearGradient id="u" x1="64" x2="64" y1="35.4" y2="-3.87" gradientTransform="matrix(1 0 0 -1 0 128)" gradientUnits="userSpaceOnUse">
    <stop offset="0" stop-color="#00BCD4"/>
    <stop offset="1" stop-color="#0097A7"/>
  </linearGradient>
  <path fill="url(#u)" d="M78.99 123.98c-.61-1.93-1.41-4.11-2.09-6.43-1.37-4.66-1.94-12.44-2.18-17.87a6.44 6.44 0 0 0-6.45-6.14h-8.55c-3.46 0-6.3 2.7-6.45 6.14-.24 5.43-.81 13.21-2.18 17.87-.68 2.32-1.47 4.5-2.09 6.43h29.99z"/>
</svg>